<svg version="1.1" xmlns="http://www.w3.org/2000/svg" xmlns:xlink="http://www.w3.org/1999/xlink" x="0px" y="0px"
    viewBox="0 0 484 130" enable-background="new 0 0 484 130" xml:space="preserve">
<path fill="#FF8700" d="M96.1,88.8c-1.9,0.6-3.4,0.8-5.4,0.8c-16.2,0-39.9-56.5-39.9-75.3c0-6.9,1.6-9.2,4-11.2
    C35,5.3,11.2,12.6,3.6,21.8C2,24.1,1,27.7,1,32.4c0,29.4,31.3,96,53.4,96C64.7,128.4,81.9,111.5,96.1,88.8 M85.8,1
    c20.4,0,40.9,3.3,40.9,14.8c0,23.4-14.9,51.8-22.4,51.8c-13.5,0-30.4-37.6-30.4-56.4C73.9,2.7,77.2,1,85.8,1"/>
<path d="M195.3,42.5v86h-12v-86H162V32.1h54.4v10.5L195.3,42.5z M258.4,83.7v44.8H246V83.7L221.3,32h13.2l18.2,40.1L270.9,32h12.5
    L258.4,83.7L258.4,83.7z M321.5,92.1h-11.6v36.4h-12V32.1c0,0,11.8-1,23.3-1c20.9,0,27,13,27,29.9C348.2,81.9,341,92.1,321.5,92.1
    L321.5,92.1z M322.9,41c-7.6,0-13,0.8-13,0.8V82h13c7.7,0,13.1-5.1,13.1-20.1C335.9,48.2,332.6,41,322.9,41z M392.9,129.5
    c-22.7,0-28.8-16.5-28.8-50.3c0-32.4,6.1-48.1,28.8-48.1c22.7,0,28.8,15.7,28.8,48.1C421.7,112.9,415.6,129.5,392.9,129.5z
        M392.9,41.1c-12.4,0-16.5,8.4-16.5,38.7c0,29.6,4.1,39.5,16.5,39.5s16.5-9.9,16.5-39.5C409.4,49.6,405.3,41.1,392.9,41.1z
        M458.7,129.5c-6.7,0-16.8-2.1-18.1-2.3v-10.3c3.3,0.7,11.9,2.2,17.9,2.2c7,0,11.6-5.8,11.6-16.4c0-12.8-2.1-19.2-11.9-19.2H447
    V73.4h9.9c11.2,0,11.7-11.4,11.7-16.9c0-10.9-3.4-15.3-10.3-15.3c-6.1,0-13,1.5-17,2.3V33.4c1.5-0.3,9.6-2.3,16.7-2.3
    c14.2,0,22.3,6.1,22.3,26.6c0,9.4-2.9,17.6-10.5,20c9,1.2,12.1,10.1,12.1,23.6C482,121.8,474,129.5,458.7,129.5L458.7,129.5z"/>
</svg>
